<svg xmlns="http://www.w3.org/2000/svg" width="30" height="30" viewBox="0 0 30 30">
  <defs>
    <style>
      .cls-1 {
        fill: #f7f7f7;
      }
    </style>
  </defs>
  <path id="Exclusion_1" data-name="Exclusion 1" class="cls-1" d="M15,30A15,15,0,0,1,9.161,1.179,15,15,0,0,1,20.839,28.821,14.907,14.907,0,0,1,15,30ZM5.158,21.68h0a11.738,11.738,0,0,0,6.417,1.9A12.09,12.09,0,0,0,16.7,22.491a11.29,11.29,0,0,0,3.742-2.805,12.358,12.358,0,0,0,3.074-8.051c0-.177,0-.359-.013-.542A8.477,8.477,0,0,0,25.59,8.92a8.49,8.49,0,0,1-2.407.663,4.2,4.2,0,0,0,1.845-2.321,8.316,8.316,0,0,1-2.663,1.018,4.19,4.19,0,0,0-7.252,2.866,4.124,4.124,0,0,0,.108.957A11.917,11.917,0,0,1,6.577,7.716a4.2,4.2,0,0,0,1.3,5.6,4.107,4.107,0,0,1-1.905-.524v.053A4.2,4.2,0,0,0,9.34,16.96a4.208,4.208,0,0,1-1.1.148,3.983,3.983,0,0,1-.788-.078,4.2,4.2,0,0,0,3.919,2.914,8.353,8.353,0,0,1-5.209,1.8A8.545,8.545,0,0,1,5.158,21.68Z"/>
</svg>
